<svg id="Layer_1" data-name="Layer 1" xmlns="http://www.w3.org/2000/svg" xmlns:xlink="http://www.w3.org/1999/xlink" viewBox="0 0 126.86 115.23"><defs><style>.cls-1{fill:url(#linear-gradient);}.cls-2{fill:none;}.cls-2,.cls-3,.cls-4{stroke:#c1272d;stroke-miterlimit:10;}.cls-3{fill:url(#linear-gradient-2);}.cls-4{fill:#d9e021;}</style><linearGradient id="linear-gradient" x1="20.96" y1="78.04" x2="146.81" y2="78.04" gradientUnits="userSpaceOnUse"><stop offset="0" stop-color="#ed1c24"/><stop offset="1" stop-color="#f7931e"/></linearGradient><linearGradient id="linear-gradient-2" x1="42.53" y1="77.98" x2="109.94" y2="77.98" gradientUnits="userSpaceOnUse"><stop offset="0" stop-color="#fcee21"/><stop offset="1" stop-color="#fff"/></linearGradient></defs><title>logo3</title><path class="cls-1" d="M122,126.3c-2.74,4.77-9.47,8.69-15,8.71l-45.87.15c-5.5,0-12.26-3.86-15-8.61L23.05,86.9c-2.77-4.75-2.79-12.55-.06-17.32L45.8,29.78c2.73-4.77,9.47-8.69,15-8.71l45.86-.15c5.5,0,12.27,3.86,15,8.61l23.06,39.65c2.77,4.75,2.8,12.55.06,17.32Z" transform="translate(-20.46 -20.42)"/><path class="cls-2" d="M122,126.3c-2.74,4.77-9.47,8.69-15,8.71l-45.87.15c-5.5,0-12.26-3.86-15-8.61L23.05,86.9c-2.77-4.75-2.79-12.55-.06-17.32L45.8,29.78c2.73-4.77,9.47-8.69,15-8.71l45.86-.15c5.5,0,12.27,3.86,15,8.61l23.06,39.65c2.77,4.75,2.8,12.55.06,17.32Z" transform="translate(-20.46 -20.42)"/><path class="cls-3" d="M106.53,110.16H71.21L60.66,86.7H85.51V72.77H59l8.77-28.39,39.15-.2c1.7,0,3-2.26,3-5l0-3.09c0-2.75-1.41-5-3.1-5l-46.07.35A4.27,4.27,0,0,0,57.61,33,4.11,4.11,0,0,0,56,35.17L42.64,78.52a2.69,2.69,0,0,0,0,1.32,3,3,0,0,0,.27,1.24l17.85,39.68a3.84,3.84,0,0,0,1.91,1.92,5.84,5.84,0,0,0,4.23,2.06l39.67.11c1.89,0,3.42-2.51,3.42-5.61v-3.47C109.94,112.67,108.41,110.16,106.53,110.16Z" transform="translate(-20.46 -20.42)"/><polygon class="cls-4" points="89.7 43.92 94.15 52.94 104.1 54.38 96.9 61.4 98.6 71.31 89.7 66.63 80.8 71.31 82.5 61.4 75.3 54.38 85.25 52.94 89.7 43.92"/></svg>